<svg viewBox="-3.47 -3.53 115.77 148.71" xmlns="http://www.w3.org/2000/svg"><metadata xmlns:fl="https://football-logos.cc/germany/fc-gutersloh">dl1_9802ab846dafd7a42fba9047e39db6414a0a78f931bcc1f4b400f7c58d96d0b2</metadata><!-- Source: https://football-logos.cc --><path d="M54.474 145.18c15.216 0 48.16-24.109 53.664-59.05 5.502-34.94 6.346-64.025-2.37-75.851C98.597.546 83.143-4.692 54.475-3.317c-25.927 1.243-44.73 5.17-52.37 11.88C-5.536 15.27-4.694 51.19.81 86.13c5.502 34.941 38.449 59.05 53.664 59.05" data-source="https://football-logos.cc" style="fill:#003867;fill-opacity:1;fill-rule:nonzero;stroke:none"></path><path d="M98.914 15.313C74.416-8.704-7.57 17.685 6.177 84.61c6.397 31.141 31.673 53.145 48.297 53.145 16.625 0 43.345-21.699 48.297-53.145 4.953-31.447 6.124-59.512-3.857-69.297M38.976 46.415H25.61v7.22h12.459v5.075h-12.46v11.386h-7.013V40.928h20.38zm19.515 24.094c-10.685 0-16.172-5.24-16.172-14.811 0-10.15 5.405-15.182 16.007-15.182 4.333 0 6.89.784 9.076 1.774l-1.856 5.074c-2.764-.743-3.92-1.031-7.137-1.073-5.282-.083-8.953 2.889-8.953 8.994s3.879 9.365 9.778 9.365c2.846 0 4.538-.247 6.766-.825l1.485 5.281c-2.805 1.032-5.239 1.403-8.994 1.403m37.75-1.691c-3.301 1.278-6.065 1.69-9.612 1.69-9.695 0-16.008-4.702-16.008-14.81 0-10.562 5.735-15.182 16.338-15.182 4.125 0 6.436.825 8.746 1.774l-1.858 5.074c-2.763-.701-4.042-1.073-7.012-1.073-5.199 0-9.076 2.558-9.076 8.994s4.29 9.365 9.612 9.365c.66 0 1.279-.041 1.856-.041v-8.952h7.014z" data-source="https://football-logos.cc" style="fill:#fff;fill-opacity:1;fill-rule:nonzero;stroke:none"></path><path d="M13.432 98.847c5.805 13.05 14.928 23.391 24.108 29.5v-40.46c-14.724 4.691-22.348 9.713-24.108 10.96M45.37 85.623v46.898c3.217 1.279 6.32 1.955 9.16 1.955 5.075 0 11.138-2.131 17.188-6.01V80.719c-10.213 1.226-18.963 2.971-26.348 4.904m34.177-5.712v42.506c9.8-8.942 18.332-22.342 20.866-38.428.267-1.701.523-2.679.766-4.356-7.9-.24-14.972-.158-21.632.278" data-source="https://football-logos.cc" style="fill:#69b033;fill-opacity:1;fill-rule:nonzero;stroke:none"></path><!-- source: https://football-logos.cc --></svg>